<svg width="182" height="182" viewBox="0 0 182 182" fill="none" xmlns="http://www.w3.org/2000/svg">
<rect width="182" height="182" fill="white"/>
<path d="M91 164C50.6832 164 18 131.317 18 91C18 50.6832 50.6832 18 91 18C131.317 18 164 50.6832 164 91C164 131.317 131.317 164 91 164Z" fill="#0E338A"/>
<path fill-rule="evenodd" clip-rule="evenodd" d="M113.03 79.7493L77.8343 64.6222C75.1076 63.4501 71.9176 64.7225 70.7453 67.4489L59.2807 94.1249C58.109 96.8514 59.381 100.042 62.1079 101.213L97.3038 116.34C100.03 117.512 103.22 116.24 104.392 113.513L115.857 86.8374C117.029 84.1103 115.757 80.9212 113.03 79.7493ZM96.6847 102.508L90.6632 93.2053L86.0312 94.0553L83.46 90.1111L72.5657 92.1416C72.437 92.1656 72.312 92.0899 72.2734 91.9645C72.2352 91.8392 72.2962 91.7068 72.4164 91.6542C79.0089 88.7694 82.0644 87.3201 81.5901 87.314L76.7916 78.0301C76.731 77.9133 76.7681 77.771 76.8781 77.6985C76.9877 77.626 77.1331 77.6477 77.2172 77.7491L87.6623 90.389L87.6653 90.3804L103.904 89.2422C104.036 89.2331 104.152 89.3237 104.175 89.4534C104.198 89.583 104.12 89.7077 103.994 89.7443L93.9774 92.6399C93.6415 92.2991 94.6985 95.5103 97.1412 102.281C97.1855 102.404 97.1315 102.54 97.0142 102.598C96.8968 102.656 96.7561 102.618 96.6847 102.508Z" fill="#FEFEFE"/>
<path fill-rule="evenodd" clip-rule="evenodd" d="M122.765 102.911L104.299 94.9885C102.404 94.1801 100.472 98.6976 102.359 99.5263L120.819 107.435C122.721 108.259 124.646 103.726 122.765 102.911Z" fill="#FEFEFE"/>
<path fill-rule="evenodd" clip-rule="evenodd" d="M114.677 108.942L100.817 102.986C98.9219 102.178 96.9754 106.702 98.8708 107.51L112.729 113.466C114.631 114.289 116.571 109.75 114.677 108.942Z" fill="#FEFEFE"/>
<path fill-rule="evenodd" clip-rule="evenodd" d="M132.63 93.5333L118.691 87.5426C116.796 86.7342 118.742 82.2104 120.638 83.019L134.577 89.0095C136.472 89.818 134.525 94.3407 132.63 93.5333Z" fill="#FEFEFE"/>
<path fill-rule="evenodd" clip-rule="evenodd" d="M122.15 121.658L108.433 115.763C106.532 114.941 104.592 119.479 106.487 120.287L120.203 126.182C122.098 126.989 124.045 122.465 122.15 121.658Z" fill="#FEFEFE"/>
<path fill-rule="evenodd" clip-rule="evenodd" d="M136.002 104.467L117.557 96.5519C115.655 95.7294 117.602 91.2056 119.497 92.0132L137.949 99.9436C139.85 100.766 137.903 105.29 136.002 104.467Z" fill="#FEFEFE"/>
<path fill-rule="evenodd" clip-rule="evenodd" d="M90.6637 93.2051L86.0316 94.0553L83.4604 90.1114L72.5661 92.1414C72.4372 92.1656 72.3122 92.0899 72.2738 91.9645C72.2357 91.8392 72.2967 91.7066 72.4166 91.6542C79.0095 88.7694 82.0649 87.3203 81.5905 87.314L76.792 78.0303C76.7315 77.9133 76.7685 77.771 76.8785 77.6985C76.9883 77.626 77.1336 77.6476 77.2174 77.7493L87.6626 90.389L87.6657 90.3804L103.905 89.2421C104.036 89.2329 104.153 89.3235 104.175 89.4534C104.198 89.583 104.121 89.7077 103.994 89.7443L93.9779 92.6399C93.642 92.2993 94.6987 95.5103 97.1416 102.281C97.1859 102.404 97.1319 102.54 97.0147 102.598C96.8972 102.656 96.7565 102.618 96.6851 102.508L90.6637 93.2051Z" fill="#F57000"/>
</svg>
